<mxfile host="Electron" modified="2024-07-01T18:05:53.849Z" agent="Mozilla/5.0 (Windows NT 10.0; Win64; x64) AppleWebKit/537.36 (KHTML, like Gecko) draw.io/24.2.5 Chrome/120.0.6099.109 Electron/28.1.0 Safari/537.36" etag="WjuBTG6FE6qTZ2XLpKZZ" version="24.2.5" type="device">
  <diagram name="Seite-1" id="_npQrhQcGGx0z-_QPrcF">
    <mxGraphModel dx="2462" dy="997" grid="1" gridSize="10" guides="1" tooltips="1" connect="1" arrows="1" fold="1" page="1" pageScale="1" pageWidth="827" pageHeight="1169" math="0" shadow="0">
      <root>
        <mxCell id="0" />
        <mxCell id="1" parent="0" />
        <mxCell id="P-2rC8ah54FCop7NgNN4-2" value="parent: 29&lt;div&gt;left: 10&lt;/div&gt;&lt;div style=&quot;&quot;&gt;right: 26&lt;/div&gt;" style="text;html=1;align=left;verticalAlign=middle;resizable=0;points=[];autosize=1;strokeColor=#82b366;fillColor=#d5e8d4;" parent="1" vertex="1">
          <mxGeometry x="1040" y="520" width="80" height="60" as="geometry" />
        </mxCell>
        <mxCell id="P-2rC8ah54FCop7NgNN4-9" value="parent:&lt;font color=&quot;#ff0000&quot;&gt; 26&lt;/font&gt;&lt;div&gt;left: 10&lt;/div&gt;&lt;div style=&quot;&quot;&gt;right: &lt;font color=&quot;#ff0000&quot;&gt;25&lt;/font&gt;&lt;/div&gt;" style="text;html=1;align=left;verticalAlign=middle;resizable=0;points=[];autosize=1;strokeColor=#82b366;fillColor=#d5e8d4;" parent="1" vertex="1">
          <mxGeometry x="1410" y="618" width="80" height="60" as="geometry" />
        </mxCell>
        <mxCell id="P-2rC8ah54FCop7NgNN4-3" value="parent: 20&lt;div&gt;left: 25&lt;/div&gt;&lt;div style=&quot;&quot;&gt;right: 27&lt;/div&gt;" style="text;html=1;align=left;verticalAlign=middle;resizable=0;points=[];autosize=1;strokeColor=#6c8ebf;fillColor=#dae8fc;" parent="1" vertex="1">
          <mxGeometry x="1210" y="585" width="80" height="60" as="geometry" />
        </mxCell>
        <mxCell id="P-2rC8ah54FCop7NgNN4-8" value="parent: &lt;font color=&quot;#ff0000&quot;&gt;29&lt;/font&gt;&lt;div&gt;left: &lt;font color=&quot;#ff0000&quot;&gt;20&lt;/font&gt;&lt;/div&gt;&lt;div style=&quot;&quot;&gt;right: 27&lt;/div&gt;" style="text;html=1;align=left;verticalAlign=middle;resizable=0;points=[];autosize=1;strokeColor=#6c8ebf;fillColor=#dae8fc;" parent="1" vertex="1">
          <mxGeometry x="1475" y="548" width="80" height="60" as="geometry" />
        </mxCell>
        <mxCell id="03pk74GwQsxXQDrOgzlb-1" value="list: [ 10 , 20, 31, 30, 29, 27, 25, 26, 28, 9 ]" style="text;html=1;align=left;verticalAlign=middle;resizable=0;points=[];autosize=1;strokeColor=none;fillColor=none;" parent="1" vertex="1">
          <mxGeometry x="20" y="150" width="250" height="30" as="geometry" />
        </mxCell>
        <mxCell id="03pk74GwQsxXQDrOgzlb-2" value="10" style="ellipse;whiteSpace=wrap;html=1;" parent="1" vertex="1">
          <mxGeometry x="40" y="210" width="40" height="40" as="geometry" />
        </mxCell>
        <mxCell id="03pk74GwQsxXQDrOgzlb-8" style="rounded=0;orthogonalLoop=1;jettySize=auto;html=1;exitX=1;exitY=1;exitDx=0;exitDy=0;entryX=0;entryY=0;entryDx=0;entryDy=0;endArrow=none;endFill=0;" parent="1" source="03pk74GwQsxXQDrOgzlb-3" target="03pk74GwQsxXQDrOgzlb-4" edge="1">
          <mxGeometry relative="1" as="geometry" />
        </mxCell>
        <mxCell id="03pk74GwQsxXQDrOgzlb-3" value="10" style="ellipse;whiteSpace=wrap;html=1;" parent="1" vertex="1">
          <mxGeometry x="160" y="210" width="40" height="40" as="geometry" />
        </mxCell>
        <mxCell id="03pk74GwQsxXQDrOgzlb-4" value="20" style="ellipse;whiteSpace=wrap;html=1;" parent="1" vertex="1">
          <mxGeometry x="210" y="260" width="40" height="40" as="geometry" />
        </mxCell>
        <mxCell id="03pk74GwQsxXQDrOgzlb-9" style="rounded=0;orthogonalLoop=1;jettySize=auto;html=1;exitX=1;exitY=1;exitDx=0;exitDy=0;entryX=0;entryY=0;entryDx=0;entryDy=0;endArrow=none;endFill=0;" parent="1" source="03pk74GwQsxXQDrOgzlb-5" target="03pk74GwQsxXQDrOgzlb-6" edge="1">
          <mxGeometry relative="1" as="geometry" />
        </mxCell>
        <mxCell id="03pk74GwQsxXQDrOgzlb-5" value="10" style="ellipse;whiteSpace=wrap;html=1;" parent="1" vertex="1">
          <mxGeometry x="330" y="210" width="40" height="40" as="geometry" />
        </mxCell>
        <mxCell id="03pk74GwQsxXQDrOgzlb-10" style="rounded=0;orthogonalLoop=1;jettySize=auto;html=1;exitX=1;exitY=1;exitDx=0;exitDy=0;entryX=0;entryY=0;entryDx=0;entryDy=0;endArrow=none;endFill=0;" parent="1" source="03pk74GwQsxXQDrOgzlb-6" target="03pk74GwQsxXQDrOgzlb-7" edge="1">
          <mxGeometry relative="1" as="geometry" />
        </mxCell>
        <mxCell id="03pk74GwQsxXQDrOgzlb-6" value="20" style="ellipse;whiteSpace=wrap;html=1;" parent="1" vertex="1">
          <mxGeometry x="380" y="260" width="40" height="40" as="geometry" />
        </mxCell>
        <mxCell id="03pk74GwQsxXQDrOgzlb-7" value="30" style="ellipse;whiteSpace=wrap;html=1;" parent="1" vertex="1">
          <mxGeometry x="430" y="310" width="40" height="40" as="geometry" />
        </mxCell>
        <mxCell id="03pk74GwQsxXQDrOgzlb-11" value="0" style="text;html=1;align=center;verticalAlign=middle;resizable=0;points=[];autosize=1;strokeColor=none;fillColor=none;" parent="1" vertex="1">
          <mxGeometry x="65" y="198" width="30" height="30" as="geometry" />
        </mxCell>
        <mxCell id="03pk74GwQsxXQDrOgzlb-12" value="1" style="text;html=1;align=center;verticalAlign=middle;resizable=0;points=[];autosize=1;strokeColor=none;fillColor=none;" parent="1" vertex="1">
          <mxGeometry x="185" y="198" width="30" height="30" as="geometry" />
        </mxCell>
        <mxCell id="03pk74GwQsxXQDrOgzlb-13" value="0" style="text;html=1;align=center;verticalAlign=middle;resizable=0;points=[];autosize=1;strokeColor=none;fillColor=none;" parent="1" vertex="1">
          <mxGeometry x="235" y="238" width="30" height="30" as="geometry" />
        </mxCell>
        <mxCell id="03pk74GwQsxXQDrOgzlb-14" value="0" style="text;html=1;align=center;verticalAlign=middle;resizable=0;points=[];autosize=1;strokeColor=none;fillColor=none;" parent="1" vertex="1">
          <mxGeometry x="445" y="288" width="30" height="30" as="geometry" />
        </mxCell>
        <mxCell id="03pk74GwQsxXQDrOgzlb-15" value="1" style="text;html=1;align=center;verticalAlign=middle;resizable=0;points=[];autosize=1;strokeColor=none;fillColor=none;" parent="1" vertex="1">
          <mxGeometry x="395" y="238" width="30" height="30" as="geometry" />
        </mxCell>
        <mxCell id="03pk74GwQsxXQDrOgzlb-16" value="2" style="text;html=1;align=center;verticalAlign=middle;resizable=0;points=[];autosize=1;strokeColor=none;fillColor=none;" parent="1" vertex="1">
          <mxGeometry x="360" y="190" width="30" height="30" as="geometry" />
        </mxCell>
        <mxCell id="03pk74GwQsxXQDrOgzlb-20" value="" style="endArrow=classic;html=1;rounded=0;" parent="1" edge="1">
          <mxGeometry width="50" height="50" relative="1" as="geometry">
            <mxPoint x="380" y="228" as="sourcePoint" />
            <mxPoint x="320" y="228" as="targetPoint" />
            <Array as="points">
              <mxPoint x="370" y="208" />
              <mxPoint x="350" y="198" />
              <mxPoint x="330" y="208" />
            </Array>
          </mxGeometry>
        </mxCell>
        <mxCell id="03pk74GwQsxXQDrOgzlb-21" style="rounded=0;orthogonalLoop=1;jettySize=auto;html=1;exitX=1;exitY=0;exitDx=0;exitDy=0;entryX=0;entryY=1;entryDx=0;entryDy=0;endArrow=none;endFill=0;" parent="1" source="03pk74GwQsxXQDrOgzlb-22" target="03pk74GwQsxXQDrOgzlb-24" edge="1">
          <mxGeometry relative="1" as="geometry" />
        </mxCell>
        <mxCell id="03pk74GwQsxXQDrOgzlb-22" value="10" style="ellipse;whiteSpace=wrap;html=1;" parent="1" vertex="1">
          <mxGeometry x="540" y="248" width="40" height="40" as="geometry" />
        </mxCell>
        <mxCell id="03pk74GwQsxXQDrOgzlb-23" style="rounded=0;orthogonalLoop=1;jettySize=auto;html=1;exitX=1;exitY=1;exitDx=0;exitDy=0;entryX=0;entryY=0;entryDx=0;entryDy=0;endArrow=none;endFill=0;" parent="1" source="03pk74GwQsxXQDrOgzlb-24" target="03pk74GwQsxXQDrOgzlb-25" edge="1">
          <mxGeometry relative="1" as="geometry" />
        </mxCell>
        <mxCell id="03pk74GwQsxXQDrOgzlb-24" value="20" style="ellipse;whiteSpace=wrap;html=1;" parent="1" vertex="1">
          <mxGeometry x="585" y="198" width="40" height="40" as="geometry" />
        </mxCell>
        <mxCell id="03pk74GwQsxXQDrOgzlb-25" value="30" style="ellipse;whiteSpace=wrap;html=1;" parent="1" vertex="1">
          <mxGeometry x="635" y="250" width="40" height="40" as="geometry" />
        </mxCell>
        <mxCell id="03pk74GwQsxXQDrOgzlb-30" style="rounded=0;orthogonalLoop=1;jettySize=auto;html=1;exitX=1;exitY=0;exitDx=0;exitDy=0;entryX=0;entryY=1;entryDx=0;entryDy=0;endArrow=none;endFill=0;" parent="1" source="03pk74GwQsxXQDrOgzlb-31" target="03pk74GwQsxXQDrOgzlb-33" edge="1">
          <mxGeometry relative="1" as="geometry" />
        </mxCell>
        <mxCell id="03pk74GwQsxXQDrOgzlb-31" value="10" style="ellipse;whiteSpace=wrap;html=1;" parent="1" vertex="1">
          <mxGeometry x="730" y="276" width="40" height="40" as="geometry" />
        </mxCell>
        <mxCell id="03pk74GwQsxXQDrOgzlb-32" style="rounded=0;orthogonalLoop=1;jettySize=auto;html=1;exitX=1;exitY=1;exitDx=0;exitDy=0;entryX=0;entryY=0;entryDx=0;entryDy=0;endArrow=none;endFill=0;" parent="1" source="03pk74GwQsxXQDrOgzlb-33" target="03pk74GwQsxXQDrOgzlb-34" edge="1">
          <mxGeometry relative="1" as="geometry" />
        </mxCell>
        <mxCell id="03pk74GwQsxXQDrOgzlb-33" value="20" style="ellipse;whiteSpace=wrap;html=1;" parent="1" vertex="1">
          <mxGeometry x="810" y="198" width="40" height="40" as="geometry" />
        </mxCell>
        <mxCell id="03pk74GwQsxXQDrOgzlb-37" style="rounded=0;orthogonalLoop=1;jettySize=auto;html=1;exitX=0;exitY=1;exitDx=0;exitDy=0;entryX=1;entryY=0;entryDx=0;entryDy=0;endArrow=none;endFill=0;" parent="1" source="03pk74GwQsxXQDrOgzlb-34" target="03pk74GwQsxXQDrOgzlb-35" edge="1">
          <mxGeometry relative="1" as="geometry" />
        </mxCell>
        <mxCell id="03pk74GwQsxXQDrOgzlb-34" value="30" style="ellipse;whiteSpace=wrap;html=1;" parent="1" vertex="1">
          <mxGeometry x="890" y="276" width="40" height="40" as="geometry" />
        </mxCell>
        <mxCell id="03pk74GwQsxXQDrOgzlb-38" style="rounded=0;orthogonalLoop=1;jettySize=auto;html=1;exitX=0;exitY=1;exitDx=0;exitDy=0;entryX=1;entryY=0;entryDx=0;entryDy=0;endArrow=none;endFill=0;" parent="1" source="03pk74GwQsxXQDrOgzlb-35" target="03pk74GwQsxXQDrOgzlb-36" edge="1">
          <mxGeometry relative="1" as="geometry" />
        </mxCell>
        <mxCell id="03pk74GwQsxXQDrOgzlb-35" value="29" style="ellipse;whiteSpace=wrap;html=1;" parent="1" vertex="1">
          <mxGeometry x="830" y="338" width="40" height="40" as="geometry" />
        </mxCell>
        <mxCell id="03pk74GwQsxXQDrOgzlb-36" value="28" style="ellipse;whiteSpace=wrap;html=1;" parent="1" vertex="1">
          <mxGeometry x="770" y="398" width="40" height="40" as="geometry" />
        </mxCell>
        <mxCell id="03pk74GwQsxXQDrOgzlb-39" value="" style="endArrow=classic;html=1;rounded=0;" parent="1" edge="1">
          <mxGeometry width="50" height="50" relative="1" as="geometry">
            <mxPoint x="880" y="296" as="sourcePoint" />
            <mxPoint x="940" y="296" as="targetPoint" />
            <Array as="points">
              <mxPoint x="890" y="276" />
              <mxPoint x="910" y="266" />
              <mxPoint x="930" y="276" />
            </Array>
          </mxGeometry>
        </mxCell>
        <mxCell id="03pk74GwQsxXQDrOgzlb-40" style="rounded=0;orthogonalLoop=1;jettySize=auto;html=1;exitX=1;exitY=0;exitDx=0;exitDy=0;entryX=0;entryY=1;entryDx=0;entryDy=0;endArrow=none;endFill=0;" parent="1" source="03pk74GwQsxXQDrOgzlb-41" target="03pk74GwQsxXQDrOgzlb-43" edge="1">
          <mxGeometry relative="1" as="geometry" />
        </mxCell>
        <mxCell id="03pk74GwQsxXQDrOgzlb-41" value="10" style="ellipse;whiteSpace=wrap;html=1;" parent="1" vertex="1">
          <mxGeometry x="1000" y="276" width="40" height="40" as="geometry" />
        </mxCell>
        <mxCell id="03pk74GwQsxXQDrOgzlb-42" style="rounded=0;orthogonalLoop=1;jettySize=auto;html=1;exitX=1;exitY=1;exitDx=0;exitDy=0;entryX=0;entryY=0;entryDx=0;entryDy=0;endArrow=none;endFill=0;" parent="1" source="03pk74GwQsxXQDrOgzlb-43" target="03pk74GwQsxXQDrOgzlb-45" edge="1">
          <mxGeometry relative="1" as="geometry" />
        </mxCell>
        <mxCell id="03pk74GwQsxXQDrOgzlb-43" value="20" style="ellipse;whiteSpace=wrap;html=1;" parent="1" vertex="1">
          <mxGeometry x="1080" y="198" width="40" height="40" as="geometry" />
        </mxCell>
        <mxCell id="03pk74GwQsxXQDrOgzlb-44" style="rounded=0;orthogonalLoop=1;jettySize=auto;html=1;exitX=0;exitY=1;exitDx=0;exitDy=0;entryX=1;entryY=0;entryDx=0;entryDy=0;endArrow=none;endFill=0;" parent="1" source="03pk74GwQsxXQDrOgzlb-45" target="03pk74GwQsxXQDrOgzlb-47" edge="1">
          <mxGeometry relative="1" as="geometry" />
        </mxCell>
        <mxCell id="03pk74GwQsxXQDrOgzlb-51" style="rounded=0;orthogonalLoop=1;jettySize=auto;html=1;exitX=1;exitY=1;exitDx=0;exitDy=0;entryX=0;entryY=0;entryDx=0;entryDy=0;endArrow=none;endFill=0;" parent="1" source="03pk74GwQsxXQDrOgzlb-45" target="03pk74GwQsxXQDrOgzlb-50" edge="1">
          <mxGeometry relative="1" as="geometry" />
        </mxCell>
        <mxCell id="03pk74GwQsxXQDrOgzlb-45" value="29" style="ellipse;whiteSpace=wrap;html=1;" parent="1" vertex="1">
          <mxGeometry x="1160" y="276" width="40" height="40" as="geometry" />
        </mxCell>
        <mxCell id="03pk74GwQsxXQDrOgzlb-47" value="28" style="ellipse;whiteSpace=wrap;html=1;" parent="1" vertex="1">
          <mxGeometry x="1100" y="338" width="40" height="40" as="geometry" />
        </mxCell>
        <mxCell id="03pk74GwQsxXQDrOgzlb-50" value="30" style="ellipse;whiteSpace=wrap;html=1;" parent="1" vertex="1">
          <mxGeometry x="1221" y="338" width="40" height="40" as="geometry" />
        </mxCell>
        <mxCell id="03pk74GwQsxXQDrOgzlb-53" style="rounded=0;orthogonalLoop=1;jettySize=auto;html=1;exitX=1;exitY=0;exitDx=0;exitDy=0;entryX=0;entryY=1;entryDx=0;entryDy=0;endArrow=none;endFill=0;" parent="1" source="03pk74GwQsxXQDrOgzlb-52" target="03pk74GwQsxXQDrOgzlb-47" edge="1">
          <mxGeometry relative="1" as="geometry" />
        </mxCell>
        <mxCell id="03pk74GwQsxXQDrOgzlb-52" value="27" style="ellipse;whiteSpace=wrap;html=1;" parent="1" vertex="1">
          <mxGeometry x="1040" y="398" width="40" height="40" as="geometry" />
        </mxCell>
        <mxCell id="03pk74GwQsxXQDrOgzlb-54" value="" style="endArrow=classic;html=1;rounded=0;" parent="1" edge="1">
          <mxGeometry width="50" height="50" relative="1" as="geometry">
            <mxPoint x="1150" y="295" as="sourcePoint" />
            <mxPoint x="1210" y="295" as="targetPoint" />
            <Array as="points">
              <mxPoint x="1160" y="275" />
              <mxPoint x="1180" y="265" />
              <mxPoint x="1200" y="275" />
            </Array>
          </mxGeometry>
        </mxCell>
        <mxCell id="03pk74GwQsxXQDrOgzlb-55" style="rounded=0;orthogonalLoop=1;jettySize=auto;html=1;exitX=1;exitY=0;exitDx=0;exitDy=0;entryX=0;entryY=1;entryDx=0;entryDy=0;endArrow=none;endFill=0;" parent="1" source="03pk74GwQsxXQDrOgzlb-56" target="03pk74GwQsxXQDrOgzlb-58" edge="1">
          <mxGeometry relative="1" as="geometry" />
        </mxCell>
        <mxCell id="03pk74GwQsxXQDrOgzlb-56" value="10" style="ellipse;whiteSpace=wrap;html=1;" parent="1" vertex="1">
          <mxGeometry x="1320" y="276" width="40" height="40" as="geometry" />
        </mxCell>
        <mxCell id="03pk74GwQsxXQDrOgzlb-57" style="rounded=0;orthogonalLoop=1;jettySize=auto;html=1;exitX=1;exitY=1;exitDx=0;exitDy=0;entryX=0;entryY=0;entryDx=0;entryDy=0;endArrow=none;endFill=0;" parent="1" source="03pk74GwQsxXQDrOgzlb-58" target="03pk74GwQsxXQDrOgzlb-61" edge="1">
          <mxGeometry relative="1" as="geometry" />
        </mxCell>
        <mxCell id="03pk74GwQsxXQDrOgzlb-58" value="20" style="ellipse;whiteSpace=wrap;html=1;" parent="1" vertex="1">
          <mxGeometry x="1400" y="198" width="40" height="40" as="geometry" />
        </mxCell>
        <mxCell id="03pk74GwQsxXQDrOgzlb-59" style="rounded=0;orthogonalLoop=1;jettySize=auto;html=1;exitX=0;exitY=1;exitDx=0;exitDy=0;entryX=1;entryY=0;entryDx=0;entryDy=0;endArrow=none;endFill=0;" parent="1" source="03pk74GwQsxXQDrOgzlb-61" target="03pk74GwQsxXQDrOgzlb-62" edge="1">
          <mxGeometry relative="1" as="geometry" />
        </mxCell>
        <mxCell id="03pk74GwQsxXQDrOgzlb-60" style="rounded=0;orthogonalLoop=1;jettySize=auto;html=1;exitX=1;exitY=1;exitDx=0;exitDy=0;entryX=0;entryY=0;entryDx=0;entryDy=0;endArrow=none;endFill=0;" parent="1" source="03pk74GwQsxXQDrOgzlb-61" target="03pk74GwQsxXQDrOgzlb-63" edge="1">
          <mxGeometry relative="1" as="geometry" />
        </mxCell>
        <mxCell id="03pk74GwQsxXQDrOgzlb-61" value="29" style="ellipse;whiteSpace=wrap;html=1;" parent="1" vertex="1">
          <mxGeometry x="1480" y="276" width="40" height="40" as="geometry" />
        </mxCell>
        <mxCell id="03pk74GwQsxXQDrOgzlb-62" value="27" style="ellipse;whiteSpace=wrap;html=1;" parent="1" vertex="1">
          <mxGeometry x="1420" y="338" width="40" height="40" as="geometry" />
        </mxCell>
        <mxCell id="03pk74GwQsxXQDrOgzlb-68" style="rounded=0;orthogonalLoop=1;jettySize=auto;html=1;exitX=1;exitY=1;exitDx=0;exitDy=0;entryX=0;entryY=0;entryDx=0;entryDy=0;endArrow=none;endFill=0;" parent="1" source="03pk74GwQsxXQDrOgzlb-63" target="03pk74GwQsxXQDrOgzlb-67" edge="1">
          <mxGeometry relative="1" as="geometry" />
        </mxCell>
        <mxCell id="03pk74GwQsxXQDrOgzlb-63" value="30" style="ellipse;whiteSpace=wrap;html=1;" parent="1" vertex="1">
          <mxGeometry x="1541" y="338" width="40" height="40" as="geometry" />
        </mxCell>
        <mxCell id="03pk74GwQsxXQDrOgzlb-67" value="31" style="ellipse;whiteSpace=wrap;html=1;" parent="1" vertex="1">
          <mxGeometry x="1600" y="398" width="40" height="40" as="geometry" />
        </mxCell>
        <mxCell id="03pk74GwQsxXQDrOgzlb-69" value="1" style="text;html=1;align=center;verticalAlign=middle;resizable=0;points=[];autosize=1;strokeColor=none;fillColor=none;" parent="1" vertex="1">
          <mxGeometry x="1555" y="308" width="30" height="30" as="geometry" />
        </mxCell>
        <mxCell id="03pk74GwQsxXQDrOgzlb-70" value="1" style="text;html=1;align=center;verticalAlign=middle;resizable=0;points=[];autosize=1;strokeColor=none;fillColor=none;" parent="1" vertex="1">
          <mxGeometry x="1510" y="258" width="30" height="30" as="geometry" />
        </mxCell>
        <mxCell id="03pk74GwQsxXQDrOgzlb-71" value="2" style="text;html=1;align=center;verticalAlign=middle;resizable=0;points=[];autosize=1;strokeColor=none;fillColor=none;" parent="1" vertex="1">
          <mxGeometry x="1430" y="180" width="30" height="30" as="geometry" />
        </mxCell>
        <mxCell id="03pk74GwQsxXQDrOgzlb-72" value="" style="endArrow=classic;html=1;rounded=0;" parent="1" edge="1">
          <mxGeometry width="50" height="50" relative="1" as="geometry">
            <mxPoint x="1450" y="220" as="sourcePoint" />
            <mxPoint x="1390" y="220" as="targetPoint" />
            <Array as="points">
              <mxPoint x="1440" y="200" />
              <mxPoint x="1420" y="190" />
              <mxPoint x="1400" y="200" />
            </Array>
          </mxGeometry>
        </mxCell>
        <mxCell id="03pk74GwQsxXQDrOgzlb-96" style="rounded=0;orthogonalLoop=1;jettySize=auto;html=1;exitX=0;exitY=1;exitDx=0;exitDy=0;entryX=1;entryY=0;entryDx=0;entryDy=0;endArrow=none;endFill=0;" parent="1" source="03pk74GwQsxXQDrOgzlb-74" target="03pk74GwQsxXQDrOgzlb-94" edge="1">
          <mxGeometry relative="1" as="geometry" />
        </mxCell>
        <mxCell id="03pk74GwQsxXQDrOgzlb-74" value="27" style="ellipse;whiteSpace=wrap;html=1;" parent="1" vertex="1">
          <mxGeometry x="160" y="598" width="40" height="40" as="geometry" />
        </mxCell>
        <mxCell id="03pk74GwQsxXQDrOgzlb-75" style="rounded=0;orthogonalLoop=1;jettySize=auto;html=1;exitX=1;exitY=1;exitDx=0;exitDy=0;entryX=0;entryY=0;entryDx=0;entryDy=0;endArrow=none;endFill=0;" parent="1" source="03pk74GwQsxXQDrOgzlb-76" target="03pk74GwQsxXQDrOgzlb-79" edge="1">
          <mxGeometry relative="1" as="geometry" />
        </mxCell>
        <mxCell id="03pk74GwQsxXQDrOgzlb-93" style="rounded=0;orthogonalLoop=1;jettySize=auto;html=1;exitX=0;exitY=1;exitDx=0;exitDy=0;entryX=1;entryY=0;entryDx=0;entryDy=0;endArrow=none;endFill=0;" parent="1" source="03pk74GwQsxXQDrOgzlb-76" target="03pk74GwQsxXQDrOgzlb-88" edge="1">
          <mxGeometry relative="1" as="geometry" />
        </mxCell>
        <mxCell id="03pk74GwQsxXQDrOgzlb-76" value="29" style="ellipse;whiteSpace=wrap;html=1;" parent="1" vertex="1">
          <mxGeometry x="160" y="480" width="40" height="40" as="geometry" />
        </mxCell>
        <mxCell id="03pk74GwQsxXQDrOgzlb-78" style="rounded=0;orthogonalLoop=1;jettySize=auto;html=1;exitX=1;exitY=1;exitDx=0;exitDy=0;entryX=0;entryY=0;entryDx=0;entryDy=0;endArrow=none;endFill=0;" parent="1" source="03pk74GwQsxXQDrOgzlb-79" target="03pk74GwQsxXQDrOgzlb-82" edge="1">
          <mxGeometry relative="1" as="geometry" />
        </mxCell>
        <mxCell id="03pk74GwQsxXQDrOgzlb-79" value="30" style="ellipse;whiteSpace=wrap;html=1;" parent="1" vertex="1">
          <mxGeometry x="220" y="540" width="40" height="40" as="geometry" />
        </mxCell>
        <mxCell id="03pk74GwQsxXQDrOgzlb-82" value="31" style="ellipse;whiteSpace=wrap;html=1;" parent="1" vertex="1">
          <mxGeometry x="280" y="598" width="40" height="40" as="geometry" />
        </mxCell>
        <mxCell id="03pk74GwQsxXQDrOgzlb-88" value="20" style="ellipse;whiteSpace=wrap;html=1;" parent="1" vertex="1">
          <mxGeometry x="100" y="540" width="40" height="40" as="geometry" />
        </mxCell>
        <mxCell id="03pk74GwQsxXQDrOgzlb-91" style="rounded=0;orthogonalLoop=1;jettySize=auto;html=1;exitX=1;exitY=0;exitDx=0;exitDy=0;entryX=0;entryY=1;entryDx=0;entryDy=0;endArrow=none;endFill=0;" parent="1" source="03pk74GwQsxXQDrOgzlb-90" target="03pk74GwQsxXQDrOgzlb-88" edge="1">
          <mxGeometry relative="1" as="geometry" />
        </mxCell>
        <mxCell id="03pk74GwQsxXQDrOgzlb-90" value="10" style="ellipse;whiteSpace=wrap;html=1;" parent="1" vertex="1">
          <mxGeometry x="40" y="604" width="40" height="40" as="geometry" />
        </mxCell>
        <mxCell id="03pk74GwQsxXQDrOgzlb-92" style="rounded=0;orthogonalLoop=1;jettySize=auto;html=1;exitX=1;exitY=1;exitDx=0;exitDy=0;entryX=0.14;entryY=0.215;entryDx=0;entryDy=0;entryPerimeter=0;endArrow=none;endFill=0;" parent="1" source="03pk74GwQsxXQDrOgzlb-88" target="03pk74GwQsxXQDrOgzlb-74" edge="1">
          <mxGeometry relative="1" as="geometry" />
        </mxCell>
        <mxCell id="03pk74GwQsxXQDrOgzlb-97" style="rounded=0;orthogonalLoop=1;jettySize=auto;html=1;exitX=1;exitY=1;exitDx=0;exitDy=0;entryX=0;entryY=0;entryDx=0;entryDy=0;endArrow=none;endFill=0;" parent="1" source="03pk74GwQsxXQDrOgzlb-94" target="03pk74GwQsxXQDrOgzlb-95" edge="1">
          <mxGeometry relative="1" as="geometry" />
        </mxCell>
        <mxCell id="03pk74GwQsxXQDrOgzlb-94" value="25" style="ellipse;whiteSpace=wrap;html=1;" parent="1" vertex="1">
          <mxGeometry x="100" y="660" width="40" height="40" as="geometry" />
        </mxCell>
        <mxCell id="03pk74GwQsxXQDrOgzlb-95" value="26" style="ellipse;whiteSpace=wrap;html=1;" parent="1" vertex="1">
          <mxGeometry x="160" y="720" width="40" height="40" as="geometry" />
        </mxCell>
        <mxCell id="03pk74GwQsxXQDrOgzlb-98" value="1" style="text;html=1;align=center;verticalAlign=middle;resizable=0;points=[];autosize=1;strokeColor=none;fillColor=none;" parent="1" vertex="1">
          <mxGeometry x="140" y="660" width="30" height="30" as="geometry" />
        </mxCell>
        <mxCell id="03pk74GwQsxXQDrOgzlb-99" value="-2" style="text;html=1;align=center;verticalAlign=middle;resizable=0;points=[];autosize=1;strokeColor=none;fillColor=none;" parent="1" vertex="1">
          <mxGeometry x="190" y="574" width="30" height="30" as="geometry" />
        </mxCell>
        <mxCell id="03pk74GwQsxXQDrOgzlb-101" style="rounded=0;orthogonalLoop=1;jettySize=auto;html=1;exitX=0;exitY=1;exitDx=0;exitDy=0;entryX=1;entryY=0;entryDx=0;entryDy=0;endArrow=none;endFill=0;" parent="1" source="03pk74GwQsxXQDrOgzlb-102" target="03pk74GwQsxXQDrOgzlb-114" edge="1">
          <mxGeometry relative="1" as="geometry" />
        </mxCell>
        <mxCell id="03pk74GwQsxXQDrOgzlb-102" value="26" style="ellipse;whiteSpace=wrap;html=1;" parent="1" vertex="1">
          <mxGeometry x="800" y="602" width="40" height="40" as="geometry" />
        </mxCell>
        <mxCell id="03pk74GwQsxXQDrOgzlb-103" style="rounded=0;orthogonalLoop=1;jettySize=auto;html=1;exitX=1;exitY=1;exitDx=0;exitDy=0;entryX=0;entryY=0;entryDx=0;entryDy=0;endArrow=none;endFill=0;" parent="1" source="03pk74GwQsxXQDrOgzlb-105" target="03pk74GwQsxXQDrOgzlb-107" edge="1">
          <mxGeometry relative="1" as="geometry" />
        </mxCell>
        <mxCell id="03pk74GwQsxXQDrOgzlb-104" style="rounded=0;orthogonalLoop=1;jettySize=auto;html=1;exitX=0;exitY=1;exitDx=0;exitDy=0;entryX=1;entryY=0;entryDx=0;entryDy=0;endArrow=none;endFill=0;" parent="1" source="03pk74GwQsxXQDrOgzlb-105" target="03pk74GwQsxXQDrOgzlb-109" edge="1">
          <mxGeometry relative="1" as="geometry" />
        </mxCell>
        <mxCell id="03pk74GwQsxXQDrOgzlb-105" value="29" style="ellipse;whiteSpace=wrap;html=1;" parent="1" vertex="1">
          <mxGeometry x="800" y="484" width="40" height="40" as="geometry" />
        </mxCell>
        <mxCell id="03pk74GwQsxXQDrOgzlb-106" style="rounded=0;orthogonalLoop=1;jettySize=auto;html=1;exitX=1;exitY=1;exitDx=0;exitDy=0;entryX=0;entryY=0;entryDx=0;entryDy=0;endArrow=none;endFill=0;" parent="1" source="03pk74GwQsxXQDrOgzlb-107" target="03pk74GwQsxXQDrOgzlb-108" edge="1">
          <mxGeometry relative="1" as="geometry" />
        </mxCell>
        <mxCell id="03pk74GwQsxXQDrOgzlb-107" value="30" style="ellipse;whiteSpace=wrap;html=1;" parent="1" vertex="1">
          <mxGeometry x="860" y="544" width="40" height="40" as="geometry" />
        </mxCell>
        <mxCell id="03pk74GwQsxXQDrOgzlb-108" value="31" style="ellipse;whiteSpace=wrap;html=1;" parent="1" vertex="1">
          <mxGeometry x="920" y="602" width="40" height="40" as="geometry" />
        </mxCell>
        <mxCell id="03pk74GwQsxXQDrOgzlb-109" value="20" style="ellipse;whiteSpace=wrap;html=1;" parent="1" vertex="1">
          <mxGeometry x="740" y="544" width="40" height="40" as="geometry" />
        </mxCell>
        <mxCell id="03pk74GwQsxXQDrOgzlb-110" style="rounded=0;orthogonalLoop=1;jettySize=auto;html=1;exitX=1;exitY=0;exitDx=0;exitDy=0;entryX=0;entryY=1;entryDx=0;entryDy=0;endArrow=none;endFill=0;" parent="1" source="03pk74GwQsxXQDrOgzlb-111" target="03pk74GwQsxXQDrOgzlb-109" edge="1">
          <mxGeometry relative="1" as="geometry" />
        </mxCell>
        <mxCell id="03pk74GwQsxXQDrOgzlb-111" value="10" style="ellipse;whiteSpace=wrap;html=1;" parent="1" vertex="1">
          <mxGeometry x="680" y="608" width="40" height="40" as="geometry" />
        </mxCell>
        <mxCell id="03pk74GwQsxXQDrOgzlb-112" style="rounded=0;orthogonalLoop=1;jettySize=auto;html=1;exitX=1;exitY=1;exitDx=0;exitDy=0;entryX=0.14;entryY=0.215;entryDx=0;entryDy=0;entryPerimeter=0;endArrow=none;endFill=0;" parent="1" source="03pk74GwQsxXQDrOgzlb-109" target="03pk74GwQsxXQDrOgzlb-102" edge="1">
          <mxGeometry relative="1" as="geometry" />
        </mxCell>
        <mxCell id="03pk74GwQsxXQDrOgzlb-113" style="rounded=0;orthogonalLoop=1;jettySize=auto;html=1;exitX=1;exitY=1;exitDx=0;exitDy=0;entryX=0;entryY=0;entryDx=0;entryDy=0;endArrow=none;endFill=0;" parent="1" source="03pk74GwQsxXQDrOgzlb-102" target="03pk74GwQsxXQDrOgzlb-115" edge="1">
          <mxGeometry relative="1" as="geometry" />
        </mxCell>
        <mxCell id="03pk74GwQsxXQDrOgzlb-114" value="25" style="ellipse;whiteSpace=wrap;html=1;" parent="1" vertex="1">
          <mxGeometry x="740" y="664" width="40" height="40" as="geometry" />
        </mxCell>
        <mxCell id="03pk74GwQsxXQDrOgzlb-115" value="27" style="ellipse;whiteSpace=wrap;html=1;" parent="1" vertex="1">
          <mxGeometry x="860" y="664" width="40" height="40" as="geometry" />
        </mxCell>
        <mxCell id="03pk74GwQsxXQDrOgzlb-119" style="rounded=0;orthogonalLoop=1;jettySize=auto;html=1;exitX=0;exitY=1;exitDx=0;exitDy=0;entryX=1;entryY=0;entryDx=0;entryDy=0;endArrow=none;endFill=0;" parent="1" source="03pk74GwQsxXQDrOgzlb-120" target="03pk74GwQsxXQDrOgzlb-132" edge="1">
          <mxGeometry relative="1" as="geometry" />
        </mxCell>
        <mxCell id="03pk74GwQsxXQDrOgzlb-120" value="26" style="ellipse;whiteSpace=wrap;html=1;" parent="1" vertex="1">
          <mxGeometry x="1160" y="602" width="40" height="40" as="geometry" />
        </mxCell>
        <mxCell id="03pk74GwQsxXQDrOgzlb-121" style="rounded=0;orthogonalLoop=1;jettySize=auto;html=1;exitX=1;exitY=1;exitDx=0;exitDy=0;entryX=0;entryY=0;entryDx=0;entryDy=0;endArrow=none;endFill=0;" parent="1" source="03pk74GwQsxXQDrOgzlb-123" target="03pk74GwQsxXQDrOgzlb-125" edge="1">
          <mxGeometry relative="1" as="geometry" />
        </mxCell>
        <mxCell id="03pk74GwQsxXQDrOgzlb-122" style="rounded=0;orthogonalLoop=1;jettySize=auto;html=1;exitX=0;exitY=1;exitDx=0;exitDy=0;entryX=1;entryY=0;entryDx=0;entryDy=0;endArrow=none;endFill=0;" parent="1" source="03pk74GwQsxXQDrOgzlb-123" target="03pk74GwQsxXQDrOgzlb-127" edge="1">
          <mxGeometry relative="1" as="geometry" />
        </mxCell>
        <mxCell id="03pk74GwQsxXQDrOgzlb-123" value="29" style="ellipse;whiteSpace=wrap;html=1;" parent="1" vertex="1">
          <mxGeometry x="1160" y="484" width="40" height="40" as="geometry" />
        </mxCell>
        <mxCell id="03pk74GwQsxXQDrOgzlb-124" style="rounded=0;orthogonalLoop=1;jettySize=auto;html=1;exitX=1;exitY=1;exitDx=0;exitDy=0;entryX=0;entryY=0;entryDx=0;entryDy=0;endArrow=none;endFill=0;" parent="1" source="03pk74GwQsxXQDrOgzlb-125" target="03pk74GwQsxXQDrOgzlb-126" edge="1">
          <mxGeometry relative="1" as="geometry" />
        </mxCell>
        <mxCell id="03pk74GwQsxXQDrOgzlb-125" value="30" style="ellipse;whiteSpace=wrap;html=1;" parent="1" vertex="1">
          <mxGeometry x="1220" y="544" width="40" height="40" as="geometry" />
        </mxCell>
        <mxCell id="03pk74GwQsxXQDrOgzlb-126" value="31" style="ellipse;whiteSpace=wrap;html=1;" parent="1" vertex="1">
          <mxGeometry x="1280" y="602" width="40" height="40" as="geometry" />
        </mxCell>
        <mxCell id="03pk74GwQsxXQDrOgzlb-127" value="20" style="ellipse;whiteSpace=wrap;html=1;" parent="1" vertex="1">
          <mxGeometry x="1100" y="544" width="40" height="40" as="geometry" />
        </mxCell>
        <mxCell id="03pk74GwQsxXQDrOgzlb-128" style="rounded=0;orthogonalLoop=1;jettySize=auto;html=1;exitX=1;exitY=0;exitDx=0;exitDy=0;entryX=0;entryY=1;entryDx=0;entryDy=0;endArrow=none;endFill=0;" parent="1" source="03pk74GwQsxXQDrOgzlb-129" target="03pk74GwQsxXQDrOgzlb-127" edge="1">
          <mxGeometry relative="1" as="geometry" />
        </mxCell>
        <mxCell id="03pk74GwQsxXQDrOgzlb-129" value="10" style="ellipse;whiteSpace=wrap;html=1;" parent="1" vertex="1">
          <mxGeometry x="1040" y="608" width="40" height="40" as="geometry" />
        </mxCell>
        <mxCell id="03pk74GwQsxXQDrOgzlb-130" style="rounded=0;orthogonalLoop=1;jettySize=auto;html=1;exitX=1;exitY=1;exitDx=0;exitDy=0;entryX=0.14;entryY=0.215;entryDx=0;entryDy=0;entryPerimeter=0;endArrow=none;endFill=0;" parent="1" source="03pk74GwQsxXQDrOgzlb-127" target="03pk74GwQsxXQDrOgzlb-120" edge="1">
          <mxGeometry relative="1" as="geometry" />
        </mxCell>
        <mxCell id="03pk74GwQsxXQDrOgzlb-131" style="rounded=0;orthogonalLoop=1;jettySize=auto;html=1;exitX=1;exitY=1;exitDx=0;exitDy=0;entryX=0;entryY=0;entryDx=0;entryDy=0;endArrow=none;endFill=0;" parent="1" source="03pk74GwQsxXQDrOgzlb-120" target="03pk74GwQsxXQDrOgzlb-133" edge="1">
          <mxGeometry relative="1" as="geometry" />
        </mxCell>
        <mxCell id="03pk74GwQsxXQDrOgzlb-132" value="25" style="ellipse;whiteSpace=wrap;html=1;" parent="1" vertex="1">
          <mxGeometry x="1100" y="664" width="40" height="40" as="geometry" />
        </mxCell>
        <mxCell id="03pk74GwQsxXQDrOgzlb-135" style="rounded=0;orthogonalLoop=1;jettySize=auto;html=1;exitX=1;exitY=1;exitDx=0;exitDy=0;entryX=0;entryY=0;entryDx=0;entryDy=0;endArrow=none;endFill=0;" parent="1" source="03pk74GwQsxXQDrOgzlb-133" target="03pk74GwQsxXQDrOgzlb-134" edge="1">
          <mxGeometry relative="1" as="geometry" />
        </mxCell>
        <mxCell id="03pk74GwQsxXQDrOgzlb-133" value="27" style="ellipse;whiteSpace=wrap;html=1;" parent="1" vertex="1">
          <mxGeometry x="1220" y="664" width="40" height="40" as="geometry" />
        </mxCell>
        <mxCell id="03pk74GwQsxXQDrOgzlb-134" value="28" style="ellipse;whiteSpace=wrap;html=1;" parent="1" vertex="1">
          <mxGeometry x="1280" y="724" width="40" height="40" as="geometry" />
        </mxCell>
        <mxCell id="03pk74GwQsxXQDrOgzlb-136" value="" style="endArrow=classic;html=1;rounded=0;" parent="1" edge="1">
          <mxGeometry width="50" height="50" relative="1" as="geometry">
            <mxPoint x="1150" y="564" as="sourcePoint" />
            <mxPoint x="1090" y="564" as="targetPoint" />
            <Array as="points">
              <mxPoint x="1140" y="544" />
              <mxPoint x="1120" y="534" />
              <mxPoint x="1100" y="544" />
            </Array>
          </mxGeometry>
        </mxCell>
        <mxCell id="03pk74GwQsxXQDrOgzlb-137" value="1" style="text;html=1;align=center;verticalAlign=middle;resizable=0;points=[];autosize=1;strokeColor=none;fillColor=none;" parent="1" vertex="1">
          <mxGeometry x="1245" y="642" width="30" height="30" as="geometry" />
        </mxCell>
        <mxCell id="03pk74GwQsxXQDrOgzlb-138" value="1" style="text;html=1;align=center;verticalAlign=middle;resizable=0;points=[];autosize=1;strokeColor=none;fillColor=none;" parent="1" vertex="1">
          <mxGeometry x="1190" y="589" width="30" height="30" as="geometry" />
        </mxCell>
        <mxCell id="03pk74GwQsxXQDrOgzlb-139" value="2" style="text;html=1;align=center;verticalAlign=middle;resizable=0;points=[];autosize=1;strokeColor=none;fillColor=none;" parent="1" vertex="1">
          <mxGeometry x="1140" y="532" width="30" height="30" as="geometry" />
        </mxCell>
        <mxCell id="03pk74GwQsxXQDrOgzlb-140" style="rounded=0;orthogonalLoop=1;jettySize=auto;html=1;exitX=1;exitY=1;exitDx=0;exitDy=0;entryX=0;entryY=0;entryDx=0;entryDy=0;endArrow=none;endFill=0;" parent="1" source="03pk74GwQsxXQDrOgzlb-150" target="03pk74GwQsxXQDrOgzlb-153" edge="1">
          <mxGeometry relative="1" as="geometry" />
        </mxCell>
        <mxCell id="03pk74GwQsxXQDrOgzlb-141" value="27" style="ellipse;whiteSpace=wrap;html=1;" parent="1" vertex="1">
          <mxGeometry x="1590" y="638" width="40" height="40" as="geometry" />
        </mxCell>
        <mxCell id="03pk74GwQsxXQDrOgzlb-142" style="rounded=0;orthogonalLoop=1;jettySize=auto;html=1;exitX=1;exitY=1;exitDx=0;exitDy=0;entryX=0;entryY=0;entryDx=0;entryDy=0;endArrow=none;endFill=0;" parent="1" source="03pk74GwQsxXQDrOgzlb-144" target="03pk74GwQsxXQDrOgzlb-146" edge="1">
          <mxGeometry relative="1" as="geometry" />
        </mxCell>
        <mxCell id="03pk74GwQsxXQDrOgzlb-143" style="rounded=0;orthogonalLoop=1;jettySize=auto;html=1;exitX=0;exitY=1;exitDx=0;exitDy=0;entryX=1;entryY=0;entryDx=0;entryDy=0;endArrow=none;endFill=0;" parent="1" source="03pk74GwQsxXQDrOgzlb-144" target="03pk74GwQsxXQDrOgzlb-148" edge="1">
          <mxGeometry relative="1" as="geometry" />
        </mxCell>
        <mxCell id="03pk74GwQsxXQDrOgzlb-144" value="29" style="ellipse;whiteSpace=wrap;html=1;" parent="1" vertex="1">
          <mxGeometry x="1590" y="520" width="40" height="40" as="geometry" />
        </mxCell>
        <mxCell id="03pk74GwQsxXQDrOgzlb-145" style="rounded=0;orthogonalLoop=1;jettySize=auto;html=1;exitX=1;exitY=1;exitDx=0;exitDy=0;entryX=0;entryY=0;entryDx=0;entryDy=0;endArrow=none;endFill=0;" parent="1" source="03pk74GwQsxXQDrOgzlb-146" target="03pk74GwQsxXQDrOgzlb-147" edge="1">
          <mxGeometry relative="1" as="geometry" />
        </mxCell>
        <mxCell id="03pk74GwQsxXQDrOgzlb-146" value="30" style="ellipse;whiteSpace=wrap;html=1;" parent="1" vertex="1">
          <mxGeometry x="1650" y="580" width="40" height="40" as="geometry" />
        </mxCell>
        <mxCell id="03pk74GwQsxXQDrOgzlb-147" value="31" style="ellipse;whiteSpace=wrap;html=1;" parent="1" vertex="1">
          <mxGeometry x="1710" y="638" width="40" height="40" as="geometry" />
        </mxCell>
        <mxCell id="03pk74GwQsxXQDrOgzlb-148" value="26" style="ellipse;whiteSpace=wrap;html=1;" parent="1" vertex="1">
          <mxGeometry x="1530" y="580" width="40" height="40" as="geometry" />
        </mxCell>
        <mxCell id="03pk74GwQsxXQDrOgzlb-149" style="rounded=0;orthogonalLoop=1;jettySize=auto;html=1;exitX=1;exitY=0;exitDx=0;exitDy=0;entryX=0;entryY=1;entryDx=0;entryDy=0;endArrow=none;endFill=0;" parent="1" source="03pk74GwQsxXQDrOgzlb-150" target="03pk74GwQsxXQDrOgzlb-148" edge="1">
          <mxGeometry relative="1" as="geometry" />
        </mxCell>
        <mxCell id="03pk74GwQsxXQDrOgzlb-150" value="20" style="ellipse;whiteSpace=wrap;html=1;" parent="1" vertex="1">
          <mxGeometry x="1470" y="638" width="40" height="40" as="geometry" />
        </mxCell>
        <mxCell id="03pk74GwQsxXQDrOgzlb-151" style="rounded=0;orthogonalLoop=1;jettySize=auto;html=1;exitX=1;exitY=1;exitDx=0;exitDy=0;entryX=0.14;entryY=0.215;entryDx=0;entryDy=0;entryPerimeter=0;endArrow=none;endFill=0;" parent="1" source="03pk74GwQsxXQDrOgzlb-148" target="03pk74GwQsxXQDrOgzlb-141" edge="1">
          <mxGeometry relative="1" as="geometry" />
        </mxCell>
        <mxCell id="03pk74GwQsxXQDrOgzlb-152" style="rounded=0;orthogonalLoop=1;jettySize=auto;html=1;exitX=1;exitY=1;exitDx=0;exitDy=0;entryX=0;entryY=0;entryDx=0;entryDy=0;endArrow=none;endFill=0;" parent="1" source="03pk74GwQsxXQDrOgzlb-141" target="03pk74GwQsxXQDrOgzlb-155" edge="1">
          <mxGeometry relative="1" as="geometry" />
        </mxCell>
        <mxCell id="03pk74GwQsxXQDrOgzlb-153" value="25" style="ellipse;whiteSpace=wrap;html=1;" parent="1" vertex="1">
          <mxGeometry x="1530" y="700" width="40" height="40" as="geometry" />
        </mxCell>
        <mxCell id="03pk74GwQsxXQDrOgzlb-154" style="rounded=0;orthogonalLoop=1;jettySize=auto;html=1;exitX=0;exitY=1;exitDx=0;exitDy=0;entryX=1;entryY=0;entryDx=0;entryDy=0;endArrow=none;endFill=0;" parent="1" source="03pk74GwQsxXQDrOgzlb-150" target="03pk74GwQsxXQDrOgzlb-156" edge="1">
          <mxGeometry relative="1" as="geometry" />
        </mxCell>
        <mxCell id="03pk74GwQsxXQDrOgzlb-155" value="28" style="ellipse;whiteSpace=wrap;html=1;" parent="1" vertex="1">
          <mxGeometry x="1650" y="700" width="40" height="40" as="geometry" />
        </mxCell>
        <mxCell id="03pk74GwQsxXQDrOgzlb-156" value="10" style="ellipse;whiteSpace=wrap;html=1;" parent="1" vertex="1">
          <mxGeometry x="1410" y="700" width="40" height="40" as="geometry" />
        </mxCell>
        <mxCell id="03pk74GwQsxXQDrOgzlb-161" style="rounded=0;orthogonalLoop=1;jettySize=auto;html=1;exitX=1;exitY=1;exitDx=0;exitDy=0;entryX=0;entryY=0;entryDx=0;entryDy=0;endArrow=none;endFill=0;" parent="1" source="03pk74GwQsxXQDrOgzlb-171" target="03pk74GwQsxXQDrOgzlb-174" edge="1">
          <mxGeometry relative="1" as="geometry" />
        </mxCell>
        <mxCell id="03pk74GwQsxXQDrOgzlb-162" value="27" style="ellipse;whiteSpace=wrap;html=1;fillColor=#ffe6cc;strokeColor=#d79b00;" parent="1" vertex="1">
          <mxGeometry x="800" y="940" width="40" height="40" as="geometry" />
        </mxCell>
        <mxCell id="03pk74GwQsxXQDrOgzlb-163" style="rounded=0;orthogonalLoop=1;jettySize=auto;html=1;exitX=1;exitY=1;exitDx=0;exitDy=0;entryX=0;entryY=0;entryDx=0;entryDy=0;endArrow=none;endFill=0;" parent="1" source="03pk74GwQsxXQDrOgzlb-165" target="03pk74GwQsxXQDrOgzlb-167" edge="1">
          <mxGeometry relative="1" as="geometry" />
        </mxCell>
        <mxCell id="03pk74GwQsxXQDrOgzlb-164" style="rounded=0;orthogonalLoop=1;jettySize=auto;html=1;exitX=0;exitY=1;exitDx=0;exitDy=0;entryX=1;entryY=0;entryDx=0;entryDy=0;endArrow=none;endFill=0;" parent="1" source="03pk74GwQsxXQDrOgzlb-165" target="03pk74GwQsxXQDrOgzlb-169" edge="1">
          <mxGeometry relative="1" as="geometry" />
        </mxCell>
        <mxCell id="03pk74GwQsxXQDrOgzlb-165" value="29" style="ellipse;whiteSpace=wrap;html=1;" parent="1" vertex="1">
          <mxGeometry x="800" y="822" width="40" height="40" as="geometry" />
        </mxCell>
        <mxCell id="03pk74GwQsxXQDrOgzlb-166" style="rounded=0;orthogonalLoop=1;jettySize=auto;html=1;exitX=1;exitY=1;exitDx=0;exitDy=0;entryX=0;entryY=0;entryDx=0;entryDy=0;endArrow=none;endFill=0;" parent="1" source="03pk74GwQsxXQDrOgzlb-167" target="03pk74GwQsxXQDrOgzlb-168" edge="1">
          <mxGeometry relative="1" as="geometry" />
        </mxCell>
        <mxCell id="03pk74GwQsxXQDrOgzlb-167" value="30" style="ellipse;whiteSpace=wrap;html=1;" parent="1" vertex="1">
          <mxGeometry x="860" y="882" width="40" height="40" as="geometry" />
        </mxCell>
        <mxCell id="03pk74GwQsxXQDrOgzlb-168" value="31" style="ellipse;whiteSpace=wrap;html=1;" parent="1" vertex="1">
          <mxGeometry x="920" y="940" width="40" height="40" as="geometry" />
        </mxCell>
        <mxCell id="03pk74GwQsxXQDrOgzlb-169" value="26" style="ellipse;whiteSpace=wrap;html=1;" parent="1" vertex="1">
          <mxGeometry x="740" y="882" width="40" height="40" as="geometry" />
        </mxCell>
        <mxCell id="03pk74GwQsxXQDrOgzlb-170" style="rounded=0;orthogonalLoop=1;jettySize=auto;html=1;exitX=1;exitY=0;exitDx=0;exitDy=0;entryX=0;entryY=1;entryDx=0;entryDy=0;endArrow=none;endFill=0;" parent="1" source="03pk74GwQsxXQDrOgzlb-171" target="03pk74GwQsxXQDrOgzlb-169" edge="1">
          <mxGeometry relative="1" as="geometry" />
        </mxCell>
        <mxCell id="03pk74GwQsxXQDrOgzlb-171" value="20" style="ellipse;whiteSpace=wrap;html=1;" parent="1" vertex="1">
          <mxGeometry x="680" y="940" width="40" height="40" as="geometry" />
        </mxCell>
        <mxCell id="03pk74GwQsxXQDrOgzlb-172" style="rounded=0;orthogonalLoop=1;jettySize=auto;html=1;exitX=1;exitY=1;exitDx=0;exitDy=0;entryX=0.14;entryY=0.215;entryDx=0;entryDy=0;entryPerimeter=0;endArrow=none;endFill=0;" parent="1" source="03pk74GwQsxXQDrOgzlb-169" target="03pk74GwQsxXQDrOgzlb-162" edge="1">
          <mxGeometry relative="1" as="geometry" />
        </mxCell>
        <mxCell id="03pk74GwQsxXQDrOgzlb-173" style="rounded=0;orthogonalLoop=1;jettySize=auto;html=1;exitX=1;exitY=1;exitDx=0;exitDy=0;entryX=0;entryY=0;entryDx=0;entryDy=0;endArrow=none;endFill=0;" parent="1" source="03pk74GwQsxXQDrOgzlb-162" target="03pk74GwQsxXQDrOgzlb-176" edge="1">
          <mxGeometry relative="1" as="geometry" />
        </mxCell>
        <mxCell id="03pk74GwQsxXQDrOgzlb-174" value="25" style="ellipse;whiteSpace=wrap;html=1;" parent="1" vertex="1">
          <mxGeometry x="740" y="1002" width="40" height="40" as="geometry" />
        </mxCell>
        <mxCell id="03pk74GwQsxXQDrOgzlb-175" style="rounded=0;orthogonalLoop=1;jettySize=auto;html=1;exitX=0;exitY=1;exitDx=0;exitDy=0;entryX=1;entryY=0;entryDx=0;entryDy=0;endArrow=none;endFill=0;" parent="1" source="03pk74GwQsxXQDrOgzlb-171" target="03pk74GwQsxXQDrOgzlb-177" edge="1">
          <mxGeometry relative="1" as="geometry" />
        </mxCell>
        <mxCell id="03pk74GwQsxXQDrOgzlb-176" value="28" style="ellipse;whiteSpace=wrap;html=1;fillColor=#ffe6cc;strokeColor=#d79b00;" parent="1" vertex="1">
          <mxGeometry x="860" y="1002" width="40" height="40" as="geometry" />
        </mxCell>
        <mxCell id="03pk74GwQsxXQDrOgzlb-177" value="10" style="ellipse;whiteSpace=wrap;html=1;" parent="1" vertex="1">
          <mxGeometry x="620" y="1002" width="40" height="40" as="geometry" />
        </mxCell>
        <mxCell id="03pk74GwQsxXQDrOgzlb-183" style="rounded=0;orthogonalLoop=1;jettySize=auto;html=1;exitX=1;exitY=0;exitDx=0;exitDy=0;entryX=0;entryY=1;entryDx=0;entryDy=0;endArrow=none;endFill=0;" parent="1" source="03pk74GwQsxXQDrOgzlb-182" target="03pk74GwQsxXQDrOgzlb-177" edge="1">
          <mxGeometry relative="1" as="geometry" />
        </mxCell>
        <mxCell id="03pk74GwQsxXQDrOgzlb-182" value="9" style="ellipse;whiteSpace=wrap;html=1;" parent="1" vertex="1">
          <mxGeometry x="560" y="1062" width="40" height="40" as="geometry" />
        </mxCell>
        <mxCell id="03pk74GwQsxXQDrOgzlb-185" value="" style="endArrow=classic;html=1;rounded=0;" parent="1" edge="1">
          <mxGeometry width="50" height="50" relative="1" as="geometry">
            <mxPoint x="790" y="842" as="sourcePoint" />
            <mxPoint x="850" y="842" as="targetPoint" />
            <Array as="points">
              <mxPoint x="800" y="822" />
              <mxPoint x="820" y="812" />
              <mxPoint x="840" y="822" />
            </Array>
          </mxGeometry>
        </mxCell>
        <mxCell id="03pk74GwQsxXQDrOgzlb-186" value="1" style="text;html=1;align=center;verticalAlign=middle;resizable=0;points=[];autosize=1;strokeColor=none;fillColor=none;" parent="1" vertex="1">
          <mxGeometry x="625" y="970" width="30" height="30" as="geometry" />
        </mxCell>
        <mxCell id="03pk74GwQsxXQDrOgzlb-187" value="1" style="text;html=1;align=center;verticalAlign=middle;resizable=0;points=[];autosize=1;strokeColor=none;fillColor=none;" parent="1" vertex="1">
          <mxGeometry x="680" y="910" width="30" height="30" as="geometry" />
        </mxCell>
        <mxCell id="03pk74GwQsxXQDrOgzlb-188" value="1" style="text;html=1;align=center;verticalAlign=middle;resizable=0;points=[];autosize=1;strokeColor=none;fillColor=none;" parent="1" vertex="1">
          <mxGeometry x="735" y="850" width="30" height="30" as="geometry" />
        </mxCell>
        <mxCell id="03pk74GwQsxXQDrOgzlb-189" value="2" style="text;html=1;align=center;verticalAlign=middle;resizable=0;points=[];autosize=1;strokeColor=none;fillColor=none;" parent="1" vertex="1">
          <mxGeometry x="830" y="800" width="30" height="30" as="geometry" />
        </mxCell>
        <mxCell id="03pk74GwQsxXQDrOgzlb-190" style="rounded=0;orthogonalLoop=1;jettySize=auto;html=1;exitX=1;exitY=1;exitDx=0;exitDy=0;entryX=0;entryY=0;entryDx=0;entryDy=0;endArrow=none;endFill=0;" parent="1" source="03pk74GwQsxXQDrOgzlb-198" target="03pk74GwQsxXQDrOgzlb-203" edge="1">
          <mxGeometry relative="1" as="geometry" />
        </mxCell>
        <mxCell id="03pk74GwQsxXQDrOgzlb-192" style="rounded=0;orthogonalLoop=1;jettySize=auto;html=1;exitX=1;exitY=1;exitDx=0;exitDy=0;entryX=0;entryY=0;entryDx=0;entryDy=0;endArrow=none;endFill=0;" parent="1" source="03pk74GwQsxXQDrOgzlb-194" target="03pk74GwQsxXQDrOgzlb-196" edge="1">
          <mxGeometry relative="1" as="geometry" />
        </mxCell>
        <mxCell id="03pk74GwQsxXQDrOgzlb-193" style="rounded=0;orthogonalLoop=1;jettySize=auto;html=1;exitX=0;exitY=1;exitDx=0;exitDy=0;entryX=1;entryY=0;entryDx=0;entryDy=0;endArrow=none;endFill=0;" parent="1" source="03pk74GwQsxXQDrOgzlb-194" target="03pk74GwQsxXQDrOgzlb-198" edge="1">
          <mxGeometry relative="1" as="geometry" />
        </mxCell>
        <mxCell id="03pk74GwQsxXQDrOgzlb-194" value="26" style="ellipse;whiteSpace=wrap;html=1;" parent="1" vertex="1">
          <mxGeometry x="1360" y="822" width="40" height="40" as="geometry" />
        </mxCell>
        <mxCell id="03pk74GwQsxXQDrOgzlb-195" style="rounded=0;orthogonalLoop=1;jettySize=auto;html=1;exitX=1;exitY=1;exitDx=0;exitDy=0;entryX=0;entryY=0;entryDx=0;entryDy=0;endArrow=none;endFill=0;" parent="1" source="03pk74GwQsxXQDrOgzlb-196" target="03pk74GwQsxXQDrOgzlb-197" edge="1">
          <mxGeometry relative="1" as="geometry" />
        </mxCell>
        <mxCell id="03pk74GwQsxXQDrOgzlb-196" value="29" style="ellipse;whiteSpace=wrap;html=1;" parent="1" vertex="1">
          <mxGeometry x="1480" y="882" width="40" height="40" as="geometry" />
        </mxCell>
        <mxCell id="03pk74GwQsxXQDrOgzlb-216" style="rounded=0;orthogonalLoop=1;jettySize=auto;html=1;exitX=1;exitY=1;exitDx=0;exitDy=0;entryX=0;entryY=0;entryDx=0;entryDy=0;endArrow=none;endFill=0;" parent="1" source="03pk74GwQsxXQDrOgzlb-197" target="03pk74GwQsxXQDrOgzlb-215" edge="1">
          <mxGeometry relative="1" as="geometry" />
        </mxCell>
        <mxCell id="03pk74GwQsxXQDrOgzlb-197" value="30" style="ellipse;whiteSpace=wrap;html=1;" parent="1" vertex="1">
          <mxGeometry x="1540" y="940" width="40" height="40" as="geometry" />
        </mxCell>
        <mxCell id="03pk74GwQsxXQDrOgzlb-198" value="20" style="ellipse;whiteSpace=wrap;html=1;" parent="1" vertex="1">
          <mxGeometry x="1240" y="882" width="40" height="40" as="geometry" />
        </mxCell>
        <mxCell id="03pk74GwQsxXQDrOgzlb-199" style="rounded=0;orthogonalLoop=1;jettySize=auto;html=1;exitX=1;exitY=0;exitDx=0;exitDy=0;entryX=0;entryY=1;entryDx=0;entryDy=0;endArrow=none;endFill=0;" parent="1" source="03pk74GwQsxXQDrOgzlb-200" target="03pk74GwQsxXQDrOgzlb-198" edge="1">
          <mxGeometry relative="1" as="geometry" />
        </mxCell>
        <mxCell id="03pk74GwQsxXQDrOgzlb-200" value="10" style="ellipse;whiteSpace=wrap;html=1;" parent="1" vertex="1">
          <mxGeometry x="1180" y="940" width="40" height="40" as="geometry" />
        </mxCell>
        <mxCell id="03pk74GwQsxXQDrOgzlb-202" style="rounded=0;orthogonalLoop=1;jettySize=auto;html=1;exitX=1;exitY=1;exitDx=0;exitDy=0;entryX=0;entryY=0;entryDx=0;entryDy=0;endArrow=none;endFill=0;" parent="1" source="03pk74GwQsxXQDrOgzlb-208" target="03pk74GwQsxXQDrOgzlb-205" edge="1">
          <mxGeometry relative="1" as="geometry" />
        </mxCell>
        <mxCell id="03pk74GwQsxXQDrOgzlb-203" value="25" style="ellipse;whiteSpace=wrap;html=1;" parent="1" vertex="1">
          <mxGeometry x="1300" y="940" width="40" height="40" as="geometry" />
        </mxCell>
        <mxCell id="03pk74GwQsxXQDrOgzlb-204" style="rounded=0;orthogonalLoop=1;jettySize=auto;html=1;exitX=0;exitY=1;exitDx=0;exitDy=0;entryX=1;entryY=0;entryDx=0;entryDy=0;endArrow=none;endFill=0;" parent="1" source="03pk74GwQsxXQDrOgzlb-200" target="03pk74GwQsxXQDrOgzlb-206" edge="1">
          <mxGeometry relative="1" as="geometry" />
        </mxCell>
        <mxCell id="03pk74GwQsxXQDrOgzlb-205" value="28" style="ellipse;whiteSpace=wrap;html=1;fillColor=#ffe6cc;strokeColor=#d79b00;" parent="1" vertex="1">
          <mxGeometry x="1480" y="1000" width="40" height="40" as="geometry" />
        </mxCell>
        <mxCell id="03pk74GwQsxXQDrOgzlb-206" value="9" style="ellipse;whiteSpace=wrap;html=1;" parent="1" vertex="1">
          <mxGeometry x="1120" y="1002" width="40" height="40" as="geometry" />
        </mxCell>
        <mxCell id="03pk74GwQsxXQDrOgzlb-207" style="rounded=0;orthogonalLoop=1;jettySize=auto;html=1;exitX=1;exitY=0;exitDx=0;exitDy=0;entryX=0;entryY=1;entryDx=0;entryDy=0;endArrow=none;endFill=0;" parent="1" source="03pk74GwQsxXQDrOgzlb-208" target="03pk74GwQsxXQDrOgzlb-196" edge="1">
          <mxGeometry relative="1" as="geometry" />
        </mxCell>
        <mxCell id="03pk74GwQsxXQDrOgzlb-208" value="27" style="ellipse;whiteSpace=wrap;html=1;fillColor=#ffe6cc;strokeColor=#d79b00;" parent="1" vertex="1">
          <mxGeometry x="1420" y="940" width="40" height="40" as="geometry" />
        </mxCell>
        <mxCell id="03pk74GwQsxXQDrOgzlb-215" value="31" style="ellipse;whiteSpace=wrap;html=1;" parent="1" vertex="1">
          <mxGeometry x="1600" y="1002" width="40" height="40" as="geometry" />
        </mxCell>
        <mxCell id="03pk74GwQsxXQDrOgzlb-217" value="" style="endArrow=classic;html=1;rounded=0;" parent="1" edge="1">
          <mxGeometry width="50" height="50" relative="1" as="geometry">
            <mxPoint x="150" y="680" as="sourcePoint" />
            <mxPoint x="90" y="680" as="targetPoint" />
            <Array as="points">
              <mxPoint x="140" y="660" />
              <mxPoint x="120" y="650" />
              <mxPoint x="100" y="660" />
            </Array>
          </mxGeometry>
        </mxCell>
        <mxCell id="03pk74GwQsxXQDrOgzlb-218" style="rounded=0;orthogonalLoop=1;jettySize=auto;html=1;exitX=0;exitY=1;exitDx=0;exitDy=0;entryX=1;entryY=0;entryDx=0;entryDy=0;endArrow=none;endFill=0;" parent="1" source="03pk74GwQsxXQDrOgzlb-219" target="03pk74GwQsxXQDrOgzlb-231" edge="1">
          <mxGeometry relative="1" as="geometry" />
        </mxCell>
        <mxCell id="03pk74GwQsxXQDrOgzlb-219" value="27" style="ellipse;whiteSpace=wrap;html=1;" parent="1" vertex="1">
          <mxGeometry x="480" y="602" width="40" height="40" as="geometry" />
        </mxCell>
        <mxCell id="03pk74GwQsxXQDrOgzlb-220" style="rounded=0;orthogonalLoop=1;jettySize=auto;html=1;exitX=1;exitY=1;exitDx=0;exitDy=0;entryX=0;entryY=0;entryDx=0;entryDy=0;endArrow=none;endFill=0;" parent="1" source="03pk74GwQsxXQDrOgzlb-222" target="03pk74GwQsxXQDrOgzlb-224" edge="1">
          <mxGeometry relative="1" as="geometry" />
        </mxCell>
        <mxCell id="03pk74GwQsxXQDrOgzlb-221" style="rounded=0;orthogonalLoop=1;jettySize=auto;html=1;exitX=0;exitY=1;exitDx=0;exitDy=0;entryX=1;entryY=0;entryDx=0;entryDy=0;endArrow=none;endFill=0;" parent="1" source="03pk74GwQsxXQDrOgzlb-222" target="03pk74GwQsxXQDrOgzlb-226" edge="1">
          <mxGeometry relative="1" as="geometry" />
        </mxCell>
        <mxCell id="03pk74GwQsxXQDrOgzlb-222" value="29" style="ellipse;whiteSpace=wrap;html=1;" parent="1" vertex="1">
          <mxGeometry x="480" y="484" width="40" height="40" as="geometry" />
        </mxCell>
        <mxCell id="03pk74GwQsxXQDrOgzlb-223" style="rounded=0;orthogonalLoop=1;jettySize=auto;html=1;exitX=1;exitY=1;exitDx=0;exitDy=0;entryX=0;entryY=0;entryDx=0;entryDy=0;endArrow=none;endFill=0;" parent="1" source="03pk74GwQsxXQDrOgzlb-224" target="03pk74GwQsxXQDrOgzlb-225" edge="1">
          <mxGeometry relative="1" as="geometry" />
        </mxCell>
        <mxCell id="03pk74GwQsxXQDrOgzlb-224" value="30" style="ellipse;whiteSpace=wrap;html=1;" parent="1" vertex="1">
          <mxGeometry x="540" y="544" width="40" height="40" as="geometry" />
        </mxCell>
        <mxCell id="03pk74GwQsxXQDrOgzlb-225" value="31" style="ellipse;whiteSpace=wrap;html=1;" parent="1" vertex="1">
          <mxGeometry x="600" y="602" width="40" height="40" as="geometry" />
        </mxCell>
        <mxCell id="03pk74GwQsxXQDrOgzlb-226" value="20" style="ellipse;whiteSpace=wrap;html=1;" parent="1" vertex="1">
          <mxGeometry x="420" y="544" width="40" height="40" as="geometry" />
        </mxCell>
        <mxCell id="03pk74GwQsxXQDrOgzlb-227" style="rounded=0;orthogonalLoop=1;jettySize=auto;html=1;exitX=1;exitY=0;exitDx=0;exitDy=0;entryX=0;entryY=1;entryDx=0;entryDy=0;endArrow=none;endFill=0;" parent="1" source="03pk74GwQsxXQDrOgzlb-228" target="03pk74GwQsxXQDrOgzlb-226" edge="1">
          <mxGeometry relative="1" as="geometry" />
        </mxCell>
        <mxCell id="03pk74GwQsxXQDrOgzlb-228" value="10" style="ellipse;whiteSpace=wrap;html=1;" parent="1" vertex="1">
          <mxGeometry x="360" y="608" width="40" height="40" as="geometry" />
        </mxCell>
        <mxCell id="03pk74GwQsxXQDrOgzlb-229" style="rounded=0;orthogonalLoop=1;jettySize=auto;html=1;exitX=1;exitY=1;exitDx=0;exitDy=0;entryX=0.14;entryY=0.215;entryDx=0;entryDy=0;entryPerimeter=0;endArrow=none;endFill=0;" parent="1" source="03pk74GwQsxXQDrOgzlb-226" target="03pk74GwQsxXQDrOgzlb-219" edge="1">
          <mxGeometry relative="1" as="geometry" />
        </mxCell>
        <mxCell id="03pk74GwQsxXQDrOgzlb-230" style="rounded=0;orthogonalLoop=1;jettySize=auto;html=1;exitX=0;exitY=1;exitDx=0;exitDy=0;entryX=1;entryY=0;entryDx=0;entryDy=0;endArrow=none;endFill=0;" parent="1" source="03pk74GwQsxXQDrOgzlb-231" target="03pk74GwQsxXQDrOgzlb-232" edge="1">
          <mxGeometry relative="1" as="geometry" />
        </mxCell>
        <mxCell id="03pk74GwQsxXQDrOgzlb-231" value="26" style="ellipse;whiteSpace=wrap;html=1;" parent="1" vertex="1">
          <mxGeometry x="420" y="660" width="40" height="40" as="geometry" />
        </mxCell>
        <mxCell id="03pk74GwQsxXQDrOgzlb-232" value="25" style="ellipse;whiteSpace=wrap;html=1;" parent="1" vertex="1">
          <mxGeometry x="360" y="720" width="40" height="40" as="geometry" />
        </mxCell>
        <mxCell id="03pk74GwQsxXQDrOgzlb-234" value="-2" style="text;html=1;align=center;verticalAlign=middle;resizable=0;points=[];autosize=1;strokeColor=none;fillColor=none;" parent="1" vertex="1">
          <mxGeometry x="510" y="578" width="30" height="30" as="geometry" />
        </mxCell>
        <mxCell id="03pk74GwQsxXQDrOgzlb-235" value="" style="endArrow=classic;html=1;rounded=0;" parent="1" edge="1">
          <mxGeometry width="50" height="50" relative="1" as="geometry">
            <mxPoint x="470" y="619" as="sourcePoint" />
            <mxPoint x="530" y="619" as="targetPoint" />
            <Array as="points">
              <mxPoint x="480" y="599" />
              <mxPoint x="500" y="589" />
              <mxPoint x="520" y="599" />
            </Array>
          </mxGeometry>
        </mxCell>
        <mxCell id="P-2rC8ah54FCop7NgNN4-1" value="&lt;div&gt;parent: null&lt;/div&gt;left: 20&lt;div&gt;right: 30&lt;/div&gt;" style="text;html=1;align=left;verticalAlign=middle;resizable=0;points=[];autosize=1;strokeColor=none;fillColor=none;" parent="1" vertex="1">
          <mxGeometry x="1210" y="460" width="80" height="60" as="geometry" />
        </mxCell>
        <mxCell id="P-2rC8ah54FCop7NgNN4-4" value="parent: 26&lt;div&gt;left: null&lt;/div&gt;&lt;div style=&quot;&quot;&gt;right: null&lt;/div&gt;" style="text;html=1;align=left;verticalAlign=middle;resizable=0;points=[];autosize=1;strokeColor=#d79b00;fillColor=#ffe6cc;" parent="1" vertex="1">
          <mxGeometry x="1110" y="710" width="80" height="60" as="geometry" />
        </mxCell>
        <mxCell id="P-2rC8ah54FCop7NgNN4-5" value="parent: 20&lt;div&gt;left: null&lt;/div&gt;&lt;div&gt;right: null&lt;/div&gt;" style="text;html=1;align=left;verticalAlign=middle;resizable=0;points=[];autosize=1;strokeColor=none;fillColor=none;" parent="1" vertex="1">
          <mxGeometry x="990" y="648" width="80" height="60" as="geometry" />
        </mxCell>
        <mxCell id="P-2rC8ah54FCop7NgNN4-7" value="&lt;div&gt;parent: null&lt;/div&gt;left: 20&lt;div&gt;right: &lt;font color=&quot;#ff0000&quot;&gt;26&lt;/font&gt;&lt;/div&gt;" style="text;html=1;align=left;verticalAlign=middle;resizable=0;points=[];autosize=1;strokeColor=none;fillColor=none;" parent="1" vertex="1">
          <mxGeometry x="1530" y="470" width="80" height="60" as="geometry" />
        </mxCell>
        <mxCell id="P-2rC8ah54FCop7NgNN4-10" value="parent: &lt;font color=&quot;#ff0000&quot;&gt;20&lt;/font&gt;&lt;div&gt;left: null&lt;/div&gt;&lt;div style=&quot;&quot;&gt;right: null&lt;/div&gt;" style="text;html=1;align=left;verticalAlign=middle;resizable=0;points=[];autosize=1;strokeColor=#d79b00;fillColor=#ffe6cc;" parent="1" vertex="1">
          <mxGeometry x="1530" y="750" width="80" height="60" as="geometry" />
        </mxCell>
      </root>
    </mxGraphModel>
  </diagram>
</mxfile>
